<svg xmlns="http://www.w3.org/2000/svg" xmlns:xlink="http://www.w3.org/1999/xlink" width="500" zoomAndPan="magnify" viewBox="0 0 375 374.999991" height="500" preserveAspectRatio="xMidYMid meet" version="1.0"><defs><clipPath id="id1"><path d="M 23.671875 1 L 350 1 L 350 375 L 23.671875 375 Z M 23.671875 1 " clip-rule="nonzero"/></clipPath></defs><g clip-path="url(#id1)"><path fill="rgb(0%, 0%, 0%)" d="M 146.15625 334.296875 C 145.601562 334.484375 145.171875 334.542969 144.738281 334.667969 C 140.425781 336.269531 136.117188 337.871094 131.804688 339.46875 C 130.574219 339.902344 129.21875 340.332031 127.925781 340.578125 C 123.488281 341.503906 119.054688 342.363281 114.558594 343.164062 C 107.96875 344.398438 101.316406 345.503906 94.539062 345.441406 C 91.214844 345.441406 87.828125 345.136719 84.5 344.890625 C 78.21875 344.457031 72.304688 342.796875 66.453125 340.578125 C 61.21875 338.609375 57.335938 335.160156 54.875 330.171875 C 52.53125 325.429688 50.128906 320.628906 49.207031 315.332031 C 48.34375 310.777344 47.480469 306.21875 46.804688 301.601562 C 46.3125 297.90625 44.957031 294.765625 42.679688 291.871094 C 41.015625 289.714844 39.230469 287.625 37.378906 285.652344 C 33.5625 281.648438 31.960938 276.847656 33.316406 271.304688 C 33.683594 269.828125 34.117188 268.410156 34.671875 266.996094 C 35.039062 266.132812 34.917969 265.578125 34.117188 265.023438 C 30.976562 262.683594 28.757812 259.667969 27.03125 256.21875 C 25.800781 253.816406 25.925781 251.539062 27.648438 249.445312 C 29.867188 246.738281 29.988281 243.472656 30.050781 240.210938 C 30.050781 239.53125 29.621094 238.855469 29.1875 238.238281 C 28.265625 236.761719 27.28125 235.34375 26.292969 233.929688 C 24.445312 231.097656 23.707031 228.015625 23.890625 224.691406 C 24.015625 222.414062 24.9375 220.382812 26.171875 218.472656 C 26.539062 217.917969 27.21875 217.425781 27.832031 217.117188 C 34.980469 213.976562 40.460938 208.867188 44.957031 202.648438 C 50.191406 195.503906 53.828125 187.5625 55.734375 178.941406 C 56.96875 173.335938 57.644531 167.609375 57.027344 161.761719 C 56.597656 158.003906 56.84375 154.1875 56.78125 150.371094 C 56.535156 141.195312 57.707031 132.203125 59.246094 123.152344 C 61.15625 112.070312 63.804688 101.230469 68.117188 90.824219 C 80.3125 61.328125 100.269531 38.484375 127.617188 22.105469 C 146.339844 10.960938 166.667969 4.496094 188.347656 2.214844 C 210.152344 0 231.402344 2.523438 252.097656 9.605469 C 274.210938 17.179688 293.550781 29.25 309.6875 46.121094 C 331.429688 68.71875 344.425781 95.566406 348.246094 126.785156 C 351.386719 152.277344 347.320312 176.722656 336.789062 200.183594 C 333.832031 206.773438 330.566406 213.238281 326.257812 219.089844 C 321.820312 225.125 318.433594 231.710938 313.875 237.625 C 311.90625 240.210938 310.425781 243.226562 308.578125 245.996094 C 306.976562 248.335938 305.191406 250.554688 303.464844 252.832031 C 301.1875 255.789062 298.785156 258.683594 296.566406 261.761719 C 293.425781 266.070312 290.347656 270.382812 287.328125 274.753906 C 286.160156 276.476562 285.171875 278.324219 284.066406 280.050781 C 281.847656 283.496094 279.566406 286.882812 277.472656 290.332031 C 275.625 293.351562 274.023438 296.488281 272.300781 299.570312 C 271.4375 301.109375 270.574219 302.585938 269.652344 304.0625 C 268.171875 306.402344 266.878906 308.804688 266.019531 311.390625 C 265.769531 312.128906 265.769531 312.992188 265.769531 313.855469 C 265.832031 316.070312 266.019531 318.351562 266.078125 320.566406 C 266.265625 334.851562 266.449219 349.136719 266.632812 363.363281 C 266.632812 364.101562 266.632812 364.839844 266.570312 365.515625 C 266.324219 367.304688 265.277344 368.289062 263.429688 368.410156 C 246.0625 369.398438 228.691406 370.382812 211.261719 371.367188 C 202.515625 371.859375 193.828125 372.351562 185.082031 372.84375 C 173.074219 373.523438 161.0625 374.261719 149.050781 374.9375 C 147.941406 375 146.773438 374.875 145.785156 374.445312 C 144.0625 373.644531 142.890625 370.382812 143.628906 368.597656 C 145.476562 364.101562 146.402344 359.421875 147.140625 354.617188 C 147.511719 352.214844 147.757812 349.875 147.632812 347.414062 C 147.511719 345.691406 147.574219 343.964844 147.574219 342.179688 C 147.632812 339.777344 147.078125 337.5 146.464844 335.222656 C 146.523438 335.097656 146.339844 334.789062 146.15625 334.296875 Z M 150.035156 368.964844 C 151.023438 368.964844 151.761719 369.027344 152.4375 368.964844 C 159.398438 368.535156 166.421875 368.101562 173.378906 367.734375 C 181.695312 367.242188 190.011719 366.808594 198.386719 366.316406 C 209.167969 365.703125 219.945312 365.023438 230.722656 364.410156 C 239.164062 363.917969 247.601562 363.421875 256.039062 362.929688 C 257.148438 362.871094 258.257812 362.808594 259.367188 362.683594 C 260.535156 362.5625 260.660156 362.4375 260.71875 361.207031 C 260.71875 360.835938 260.71875 360.40625 260.71875 360.035156 C 260.660156 355.789062 260.597656 351.539062 260.535156 347.289062 C 260.414062 337.5625 260.289062 327.832031 260.167969 318.101562 C 260.167969 317.425781 260.167969 316.6875 259.917969 316.132812 C 259.117188 314.46875 259.367188 312.871094 259.917969 311.207031 C 261.089844 307.574219 262.691406 304.125 264.785156 300.921875 C 265.894531 299.199219 266.816406 297.414062 267.804688 295.691406 C 270.082031 291.808594 272.300781 287.929688 274.640625 284.113281 C 275.75 282.265625 277.042969 280.480469 278.214844 278.632812 C 281.046875 273.953125 283.816406 269.210938 287.144531 264.839844 C 288.4375 263.175781 289.546875 261.453125 290.839844 259.851562 C 293.734375 256.035156 296.691406 252.214844 299.648438 248.398438 C 300.878906 246.738281 302.234375 245.136719 303.34375 243.410156 C 305.746094 239.839844 307.964844 236.144531 310.304688 232.511719 C 312.273438 229.496094 314.246094 226.539062 316.15625 223.523438 C 317.941406 220.8125 319.664062 218.042969 321.453125 215.332031 C 322.808594 213.300781 324.347656 211.328125 325.578125 209.238281 C 327.796875 205.296875 329.953125 201.292969 331.800781 197.167969 C 341.964844 174.570312 345.535156 150.921875 342.394531 126.355469 C 338.761719 97.90625 326.871094 73.277344 307.46875 52.214844 C 296.015625 39.839844 282.710938 29.988281 267.679688 22.476562 C 240.210938 8.867188 211.199219 4.308594 180.957031 9.113281 C 146.339844 14.65625 117.390625 30.726562 94.785156 57.636719 C 76.617188 79.308594 66.453125 104.371094 64.234375 132.574219 C 63.929688 136.453125 63.929688 140.394531 62.695312 144.210938 C 62.632812 144.398438 62.574219 144.644531 62.632812 144.890625 C 62.757812 147.96875 62.574219 151.046875 63.003906 154.0625 C 63.929688 160.035156 63.929688 166.011719 63.128906 171.984375 C 61.648438 183.003906 58.015625 193.289062 52.039062 202.710938 C 47.976562 209.050781 43.046875 214.59375 36.765625 218.78125 C 34.855469 220.074219 32.824219 221.058594 30.789062 222.167969 C 30.113281 222.535156 29.621094 222.90625 29.621094 223.828125 C 29.621094 226.417969 29.867188 228.878906 31.40625 231.035156 C 32.082031 232.019531 32.761719 232.945312 33.378906 233.929688 C 34.300781 235.46875 35.285156 236.945312 36.085938 238.546875 C 36.886719 240.085938 36.828125 241.625 36.210938 243.226562 C 35.839844 244.089844 35.59375 245.011719 35.410156 245.9375 C 34.980469 248.03125 34.363281 250.0625 33.070312 251.785156 C 32.269531 252.832031 32.269531 253.757812 33.007812 254.863281 C 34.671875 257.390625 36.457031 259.789062 39.289062 261.207031 C 41.015625 262.070312 41.570312 263.300781 41.261719 265.210938 C 41.078125 266.316406 40.644531 267.363281 40.335938 268.410156 C 39.96875 269.582031 39.476562 270.691406 39.167969 271.921875 C 37.996094 276.171875 39.414062 279.617188 42.554688 282.511719 C 43.417969 283.3125 44.21875 284.175781 44.957031 285.035156 C 46.066406 286.453125 47.113281 287.929688 48.160156 289.347656 C 50.4375 292.363281 51.855469 295.691406 52.410156 299.445312 C 53.148438 304.1875 54.011719 308.929688 54.933594 313.671875 C 55.367188 315.824219 56.105469 317.980469 56.84375 320.074219 C 57.582031 322.105469 58.507812 324.078125 59.429688 326.109375 C 61.339844 330.417969 64.359375 333.496094 68.792969 335.160156 C 73.84375 337.070312 79.019531 338.484375 84.378906 339.039062 C 91.027344 339.714844 97.679688 339.964844 104.273438 338.855469 C 111.972656 337.5625 119.671875 336.082031 127.371094 334.667969 C 127.925781 334.542969 128.476562 334.421875 128.972656 334.238281 C 132.914062 332.820312 136.855469 331.34375 140.796875 329.863281 C 142.460938 329.25 144.125 328.570312 145.847656 328.015625 C 148.496094 327.15625 149.972656 327.894531 151.082031 330.480469 C 152.253906 333.3125 153.117188 336.332031 153.363281 339.410156 C 154.101562 347.96875 153.484375 356.402344 151.207031 364.71875 C 150.835938 366.011719 150.527344 367.363281 150.035156 368.964844 Z M 150.035156 368.964844 " fill-opacity="1" fill-rule="nonzero"/></g><path fill="rgb(0%, 0%, 0%)" d="M 30.730469 258.25 C 30.542969 258.066406 30.421875 257.941406 30.296875 257.882812 C 28.511719 256.773438 28.082031 255.601562 29.003906 253.695312 C 29.1875 253.261719 29.804688 252.957031 30.296875 252.832031 C 30.851562 252.710938 31.53125 252.894531 32.082031 253.015625 C 35.964844 253.695312 39.84375 254.804688 43.847656 254.804688 C 45.019531 254.804688 46.1875 254.679688 47.359375 254.554688 C 53.210938 253.878906 59 253.203125 64.851562 252.585938 C 69.101562 252.09375 73.414062 251.601562 77.664062 251.109375 C 83.023438 250.492188 88.320312 249.507812 93.675781 249.445312 C 93.984375 249.445312 94.230469 249.445312 94.539062 249.382812 C 99.222656 248.828125 103.839844 248.214844 108.523438 247.660156 C 109.015625 247.597656 109.507812 247.535156 110 247.476562 C 124.105469 246.613281 138.085938 244.765625 152.070312 243.226562 C 156.320312 242.734375 160.507812 242.242188 164.757812 241.6875 C 166.667969 241.441406 168.574219 240.949219 170.546875 240.640625 C 174.425781 240.023438 178.371094 240.394531 182.25 240.515625 C 183.667969 240.578125 185.023438 240.761719 186.4375 241.011719 C 189.332031 241.503906 192.105469 242.242188 194.570312 243.964844 C 194.816406 244.148438 195.121094 244.335938 195.429688 244.457031 C 199.679688 245.996094 202.699219 249.199219 205.964844 252.09375 C 206.519531 252.585938 207.070312 253.203125 207.503906 253.878906 C 209.71875 257.636719 212.308594 261.207031 213.292969 265.578125 C 213.664062 267.179688 213.96875 268.78125 214.15625 270.382812 C 214.832031 275.921875 215.511719 281.464844 216.066406 287.070312 C 216.371094 290.210938 216.371094 293.410156 216.371094 296.613281 C 216.3125 305.972656 216.1875 315.332031 216.125 324.628906 C 216.125 328.015625 216.3125 331.464844 216.433594 334.851562 C 216.433594 335.097656 216.433594 335.28125 216.496094 335.53125 C 216.679688 342.488281 216.925781 349.382812 217.113281 356.34375 C 217.171875 359.050781 217.234375 361.699219 217.296875 364.410156 C 217.296875 364.902344 217.296875 365.457031 217.171875 365.886719 C 216.867188 367.179688 215.878906 367.734375 214.648438 367.242188 C 214.09375 366.996094 213.664062 366.933594 213.109375 367.179688 C 211.816406 367.609375 210.953125 367.054688 210.644531 365.703125 C 210.582031 365.332031 210.519531 364.902344 210.519531 364.53125 C 210.644531 359.296875 210.769531 354.003906 210.953125 348.769531 C 211.015625 346.121094 211.261719 343.535156 211.320312 340.886719 C 211.445312 331.28125 211.570312 321.613281 211.628906 312.007812 C 211.691406 305.050781 211.199219 298.152344 210.582031 291.257812 C 210.460938 289.777344 210.335938 288.363281 210.214844 286.882812 C 209.90625 283.375 209.660156 279.863281 209.289062 276.355469 C 209.167969 274.9375 208.796875 273.523438 208.425781 272.105469 C 207.933594 270.011719 207.195312 267.917969 206.824219 265.761719 C 206.210938 262.253906 204.300781 259.421875 202.019531 256.894531 C 200.667969 255.355469 198.941406 254.125 197.21875 252.957031 C 195.0625 251.539062 192.84375 250.246094 190.503906 249.136719 C 185.882812 246.984375 181.019531 245.75 175.90625 245.875 C 172.332031 245.996094 168.699219 245.9375 165.1875 246.304688 C 161.800781 246.675781 158.472656 247.476562 155.148438 248.214844 C 150.898438 249.078125 146.585938 250 142.335938 250.984375 C 138.023438 252.03125 133.652344 252.464844 129.21875 252.710938 C 125.890625 252.894531 122.566406 253.449219 119.238281 253.816406 C 111.292969 254.554688 103.285156 255.296875 95.339844 256.035156 C 85.976562 256.894531 76.617188 257.757812 67.253906 258.621094 C 59.492188 259.359375 51.730469 260.035156 44.03125 260.777344 C 40.828125 261.082031 37.566406 261.390625 34.363281 261.699219 C 33.5625 261.761719 32.824219 261.882812 32.023438 261.824219 C 30.234375 261.761719 29.621094 260.53125 30.421875 258.929688 C 30.542969 258.621094 30.667969 258.4375 30.730469 258.25 Z M 30.730469 258.25 " fill-opacity="1" fill-rule="nonzero"/><path fill="rgb(0%, 0%, 0%)" d="M 193.152344 350.246094 C 192.90625 355.417969 192.78125 360.652344 192.414062 365.824219 C 192.289062 367.242188 191.796875 368.65625 191.179688 369.949219 C 190.441406 371.488281 188.53125 371.488281 187.730469 369.890625 C 187.421875 369.335938 187.300781 368.597656 187.238281 367.980469 C 187.117188 364.65625 186.929688 361.269531 187.054688 357.945312 C 187.238281 354.308594 186.871094 350.675781 186.621094 347.042969 C 186.4375 344.519531 186.070312 342.058594 185.820312 339.53125 C 185.515625 335.589844 185.207031 331.589844 184.960938 327.648438 C 184.652344 321.550781 183.851562 315.515625 182.867188 309.484375 C 182.433594 306.898438 182.125 304.308594 181.695312 301.722656 C 181.386719 299.875 180.894531 298.03125 180.523438 296.183594 C 180.402344 295.503906 180.21875 294.890625 180.03125 294.210938 C 179.171875 291.070312 178.429688 287.929688 177.382812 284.851562 C 176.335938 281.648438 174.367188 279.125 171.65625 277.15625 C 169.683594 275.738281 167.40625 275.308594 165.125 275.371094 C 159.890625 275.492188 154.71875 275.984375 149.726562 277.648438 C 147.574219 278.324219 145.417969 278.816406 143.261719 279.433594 C 141.226562 279.988281 139.195312 280.664062 137.164062 281.21875 C 135.007812 281.835938 132.851562 282.328125 130.632812 282.820312 C 128.972656 283.191406 127.183594 283.375 125.523438 283.867188 C 122.074219 284.851562 118.4375 285.035156 114.925781 285.53125 C 112.402344 285.835938 109.816406 286.207031 107.289062 286.578125 C 101.375 287.5625 95.527344 287.191406 89.613281 286.144531 C 83.328125 285.035156 77.171875 283.4375 71.074219 281.527344 C 69.410156 280.972656 67.746094 280.480469 66.144531 279.804688 C 61.832031 278.078125 57.335938 276.785156 52.78125 275.984375 C 50.316406 275.554688 47.851562 275.0625 45.328125 274.628906 C 43.230469 274.261719 41.199219 274.445312 39.167969 275.0625 C 38.304688 275.371094 37.441406 275.617188 36.582031 275.617188 C 34.980469 275.738281 34.425781 274.753906 34.855469 273.214844 C 35.410156 271.183594 36.765625 270.382812 38.734375 270.195312 C 42.984375 269.703125 47.175781 270.136719 51.238281 270.996094 C 57.890625 272.476562 64.480469 274.199219 71.132812 275.863281 C 71.195312 275.863281 71.257812 275.863281 71.320312 275.921875 C 79.574219 279.0625 88.378906 279.558594 97.003906 280.480469 C 100.269531 280.789062 103.59375 280.664062 106.921875 280.417969 C 113.019531 279.925781 119.054688 279.433594 125.089844 278.570312 C 128.539062 278.078125 131.988281 277.09375 135.375 276.230469 C 137.964844 275.554688 140.550781 274.753906 143.136719 274.078125 C 148.1875 272.84375 153.238281 271.613281 158.351562 270.445312 C 162.230469 269.582031 166.171875 269.644531 170.054688 270.445312 C 175.96875 271.675781 180.15625 275.183594 182.621094 280.789062 C 185.761719 287.808594 187.546875 295.136719 188.222656 302.769531 C 188.53125 306.097656 189.148438 309.421875 189.765625 312.683594 C 192.105469 325.183594 193.152344 337.683594 193.152344 350.246094 Z M 193.152344 350.246094 " fill-opacity="1" fill-rule="nonzero"/></svg>