<svg xmlns="http://www.w3.org/2000/svg" xmlns:xlink="http://www.w3.org/1999/xlink" width="500" zoomAndPan="magnify" viewBox="0 0 375 374.999991" height="500" preserveAspectRatio="xMidYMid meet" version="1.0"><defs><clipPath id="id1"><path d="M 29.25 9.140625 L 347 9.140625 L 347 366.140625 L 29.25 366.140625 Z M 29.25 9.140625 " clip-rule="nonzero"/></clipPath></defs><path fill="rgb(100%, 100%, 100%)" d="M 328.835938 94.5625 L 303.058594 60.046875 L 276.585938 36.34375 L 234.433594 17.519531 L 181.488281 17.519531 L 141.082031 28.324219 L 107.988281 48.195312 L 80.820312 73.992188 L 72.109375 111.292969 L 76.292969 154.523438 L 59.570312 167.074219 L 38.671875 209.953125 L 62.707031 232.261719 L 58.175781 260.152344 L 68.628906 279.324219 L 69.324219 311.746094 L 102.066406 318.371094 L 140.035156 316.625 L 147.699219 360.550781 L 284.597656 363.6875 L 283.203125 335.800781 L 283.550781 271.65625 L 294.699219 250.390625 L 325.699219 187.640625 L 335.804688 132.210938 Z M 328.835938 94.5625 " fill-opacity="1" fill-rule="nonzero"/><path fill="rgb(92.549133%, 33.329773%, 39.219666%)" d="M 237.210938 269.984375 C 237.210938 285.796875 224.007812 298.613281 207.722656 298.613281 C 191.425781 298.613281 178.222656 285.796875 178.222656 269.984375 C 178.222656 254.171875 191.425781 241.347656 207.722656 241.347656 C 224.007812 241.347656 237.210938 254.171875 237.210938 269.984375 Z M 237.210938 269.984375 " fill-opacity="1" fill-rule="nonzero"/><g clip-path="url(#id1)"><path fill="rgb(0%, 0%, 0%)" d="M 269.519531 25.601562 C 247.867188 14.445312 223.429688 9.152344 199.15625 9.152344 C 121.976562 9.152344 46.421875 62.675781 67.015625 151.472656 L 53.441406 167.902344 L 29.484375 211.816406 L 52.800781 230.367188 L 51.832031 261.558594 L 61.148438 274.921875 C 61.148438 274.921875 50.046875 316.648438 67.015625 322.5625 C 82.953125 328.128906 100.328125 329.515625 113.640625 329.515625 C 126.746094 329.515625 135.910156 328.175781 135.910156 328.175781 L 137.761719 366.128906 L 295.167969 366.128906 C 295.167969 366.128906 279.589844 287.453125 303.242188 254.039062 C 326.898438 220.617188 404.054688 94.910156 269.519531 25.601562 Z M 151.925781 351.25 L 150.757812 327.445312 L 149.976562 311.09375 L 133.789062 313.457031 C 133.703125 313.46875 125.363281 314.644531 113.640625 314.644531 C 102.960938 314.644531 87.472656 313.652344 73.363281 309.011719 C 72.730469 307.117188 71.9375 302.300781 72.882812 293.511719 C 73.722656 285.578125 75.496094 278.792969 75.507812 278.75 L 76.007812 276.886719 L 163.113281 276.886719 L 159.261719 278.488281 L 174.261719 288.542969 L 166.414062 296.398438 L 184.121094 299.9375 L 179.867188 310.210938 L 197.589844 306.703125 L 197.589844 317.816406 L 200.398438 315.929688 L 200.398438 351.25 Z M 207.832031 291.753906 C 195.519531 291.753906 185.539062 281.765625 185.539062 269.445312 C 185.539062 257.125 195.519531 247.132812 207.832031 247.132812 C 220.144531 247.132812 230.125 257.125 230.125 269.445312 C 230.125 281.765625 220.144531 291.753906 207.832031 291.753906 Z M 275.484375 323.195312 C 275.898438 333.753906 276.855469 343.492188 277.835938 351.25 L 215.253906 351.25 L 215.253906 314.1875 L 216.855469 318.054688 L 226.902344 303.042969 L 234.761719 310.898438 L 238.300781 293.171875 L 248.554688 297.421875 L 245.050781 279.695312 L 256.152344 279.695312 L 246.140625 264.660156 L 256.402344 260.414062 L 241.390625 250.347656 L 249.242188 242.492188 L 231.539062 238.953125 L 235.785156 228.6875 L 218.074219 232.195312 L 218.074219 221.074219 L 203.054688 231.109375 L 198.796875 220.835938 L 188.75 235.859375 L 180.902344 227.992188 L 177.351562 245.71875 L 167.097656 241.46875 L 170.601562 259.195312 L 159.5 259.195312 L 161.371094 262.003906 L 70.269531 262.003906 L 66.84375 257.089844 L 67.648438 230.824219 L 67.886719 223.363281 L 62.042969 218.722656 L 48.523438 207.957031 L 65.808594 176.277344 L 78.46875 160.949219 L 83.148438 155.273438 L 81.496094 148.117188 C 77.78125 132.136719 77.457031 116.960938 80.523438 102.992188 C 83.324219 90.234375 88.953125 78.460938 97.257812 68 C 107.945312 54.535156 123.109375 43.347656 141.09375 35.65625 C 158.890625 28.042969 178.976562 24.019531 199.15625 24.019531 C 221.941406 24.019531 243.929688 29.140625 262.71875 38.824219 C 282.410156 48.96875 298.09375 60.898438 309.351562 74.265625 C 319.050781 85.78125 325.6875 98.691406 329.097656 112.613281 C 334.671875 135.457031 331.90625 161.636719 320.878906 190.417969 C 311.484375 214.972656 298.191406 235.433594 291.117188 245.433594 C 279.359375 262.035156 274.101562 288.191406 275.484375 323.195312 Z M 275.484375 323.195312 " fill-opacity="1" fill-rule="nonzero"/></g></svg>