<svg xmlns="http://www.w3.org/2000/svg" xmlns:xlink="http://www.w3.org/1999/xlink" width="500" zoomAndPan="magnify" viewBox="0 0 375 374.999991" height="500" preserveAspectRatio="xMidYMid meet" version="1.0"><path fill="rgb(97.648621%, 66.268921%, 50.19989%)" d="M 260.015625 373.15625 C 255.054688 326.25 249.59375 291.746094 248.226562 264.207031 C 248.226562 264.207031 244.898438 238.152344 249.519531 219.992188 C 254.132812 201.835938 260.855469 168.75 260.609375 159.664062 C 260.375 150.570312 262.972656 128.992188 265.273438 124.910156 C 267.59375 120.824219 278.535156 90.976562 282 84.960938 C 285.464844 78.949219 298.589844 58.183594 288.335938 55.4375 C 278.089844 52.695312 274.097656 61.894531 272.035156 66.210938 C 269.992188 70.519531 249.550781 105.121094 249.550781 105.121094 C 249.550781 105.121094 246.074219 110.804688 242.101562 109.207031 C 238.132812 107.609375 239.6875 98.414062 239.695312 95.117188 C 239.695312 91.828125 241.417969 53.664062 241.566406 50.484375 C 241.707031 47.296875 243.773438 27.199219 243.527344 24.703125 C 243.273438 22.203125 246.488281 11.191406 235.351562 11.84375 C 224.1875 12.515625 224.042969 24.78125 223.136719 31.597656 C 222.226562 38.414062 216.394531 81.90625 215.089844 86.324219 C 213.816406 90.761719 213.679688 96.210938 210.734375 96.085938 C 207.777344 95.980469 207.164062 82.339844 206.527344 78.25 C 205.890625 74.160156 200.953125 38.269531 199.675781 31.210938 C 198.40625 24.183594 197.660156 15.203125 197.660156 15.203125 C 197.660156 15.203125 195.496094 0.769531 187.425781 1.789062 C 179.347656 2.789062 174.722656 9.367188 176.238281 22.328125 C 177.757812 35.269531 179.253906 66.507812 179.253906 66.507812 C 179.253906 66.507812 184.585938 95.714844 177.535156 96.605469 C 170.472656 97.503906 163.472656 74.542969 161.042969 68.875 C 158.609375 63.191406 142.902344 28.289062 142.902344 28.289062 C 142.902344 28.289062 140.09375 21.578125 130.347656 24.179688 C 120.605469 26.78125 124.691406 38.703125 128.253906 48.253906 C 131.828125 57.800781 148.425781 103.390625 149.820312 116.328125 C 151.210938 129.265625 143.617188 143 142.066406 145.28125 C 142.066406 145.28125 141.820312 146.179688 137.34375 141.527344 C 132.863281 136.859375 118.65625 123.773438 111.230469 119.910156 C 103.800781 116.027344 88.558594 110.996094 82.273438 118.035156 C 82.273438 118.035156 76.617188 122.910156 83.800781 127.460938 C 90.960938 132.019531 103.890625 141.585938 113.222656 155.101562 C 122.558594 168.644531 120.636719 166.640625 123.457031 171.332031 C 123.457031 171.332031 138.414062 194.113281 143.90625 198.210938 C 149.421875 202.308594 163.242188 218.222656 163.226562 222.4375 C 163.226562 226.632812 163.4375 246.859375 163.445312 250.144531 C 163.4375 253.4375 156.921875 350.828125 156.921875 350.828125 L 154.609375 373.15625 " fill-opacity="1" fill-rule="nonzero"/><path fill="rgb(13.729858%, 12.159729%, 12.548828%)" d="M 261.585938 372.992188 C 256.613281 326.046875 251.15625 291.527344 249.796875 264.128906 L 249.785156 264.007812 C 249.785156 264.007812 249.769531 263.875 249.738281 263.613281 C 249.523438 261.765625 248.640625 253.648438 248.640625 243.96875 C 248.640625 236.289062 249.203125 227.617188 251.046875 220.382812 C 253.320312 211.421875 256.101562 198.890625 258.3125 187.351562 C 259.421875 181.582031 260.386719 176.0625 261.078125 171.359375 C 261.765625 166.640625 262.1875 162.773438 262.1875 160.175781 C 262.1875 159.980469 262.1875 159.800781 262.183594 159.632812 L 262.183594 159.625 C 262.171875 159.257812 262.167969 158.867188 262.167969 158.453125 C 262.167969 153.746094 262.78125 146.363281 263.667969 139.730469 C 264.113281 136.417969 264.625 133.285156 265.152344 130.769531 C 265.421875 129.507812 265.691406 128.40625 265.949219 127.527344 C 266.207031 126.652344 266.476562 125.988281 266.648438 125.6875 C 266.996094 125.0625 267.425781 124.136719 267.960938 122.894531 C 269.835938 118.570312 272.941406 110.566406 275.972656 102.972656 C 277.484375 99.175781 278.980469 95.484375 280.277344 92.425781 C 280.921875 90.898438 281.519531 89.527344 282.050781 88.386719 C 282.574219 87.246094 283.03125 86.332031 283.367188 85.75 C 284.613281 83.59375 287.1875 79.398438 289.453125 74.796875 C 290.585938 72.492188 291.648438 70.082031 292.4375 67.734375 C 293.222656 65.390625 293.753906 63.109375 293.757812 60.996094 C 293.753906 59.429688 293.457031 57.914062 292.628906 56.617188 C 291.804688 55.316406 290.4375 54.359375 288.746094 53.914062 C 287.335938 53.539062 286.003906 53.359375 284.753906 53.359375 C 282.582031 53.355469 280.667969 53.902344 279.046875 54.78125 C 276.609375 56.101562 274.851562 58.117188 273.523438 60.113281 C 272.195312 62.117188 271.28125 64.136719 270.613281 65.53125 C 270.394531 65.996094 269.851562 67.011719 269.105469 68.355469 C 266.480469 73.082031 261.246094 82.085938 256.675781 89.890625 C 254.386719 93.800781 252.269531 97.402344 250.722656 100.035156 C 249.945312 101.351562 249.3125 102.421875 248.875 103.164062 C 248.4375 103.90625 248.191406 104.320312 248.191406 104.320312 L 249.550781 105.121094 L 248.203125 104.300781 C 248.167969 104.367188 247.523438 105.371094 246.589844 106.285156 C 246.125 106.742188 245.589844 107.175781 245.058594 107.46875 C 244.519531 107.761719 244.011719 107.914062 243.542969 107.914062 C 243.269531 107.914062 242.996094 107.863281 242.695312 107.746094 C 242.429688 107.636719 242.230469 107.480469 242.007812 107.1875 C 241.683594 106.757812 241.386719 105.996094 241.210938 105.03125 C 241.035156 104.066406 240.964844 102.914062 240.964844 101.742188 C 240.964844 100.507812 241.039062 99.25 241.113281 98.105469 C 241.1875 96.960938 241.269531 95.945312 241.273438 95.121094 L 241.273438 95.117188 C 241.273438 94.757812 241.296875 93.789062 241.347656 92.4375 C 241.675781 82.910156 243.011719 53.332031 243.136719 50.550781 C 243.167969 49.871094 243.308594 48.164062 243.5 45.992188 C 243.785156 42.722656 244.191406 38.351562 244.523438 34.402344 C 244.695312 32.429688 244.839844 30.566406 244.949219 28.984375 C 245.054688 27.40625 245.125 26.136719 245.125 25.289062 C 245.125 25.007812 245.117188 24.777344 245.097656 24.570312 L 245.097656 24.539062 L 245.085938 24.355469 C 245.085938 24 245.144531 23.339844 245.210938 22.554688 C 245.277344 21.765625 245.347656 20.835938 245.347656 19.84375 C 245.347656 18.835938 245.277344 17.765625 245.042969 16.6875 C 244.871094 15.878906 244.601562 15.066406 244.191406 14.292969 C 243.582031 13.132812 242.613281 12.066406 241.273438 11.34375 C 239.9375 10.621094 238.277344 10.242188 236.273438 10.242188 C 235.945312 10.246094 235.605469 10.253906 235.257812 10.273438 C 232.183594 10.449219 229.699219 11.476562 227.84375 13.054688 C 226.445312 14.234375 225.410156 15.691406 224.628906 17.253906 C 223.457031 19.601562 222.835938 22.195312 222.425781 24.675781 C 222.015625 27.152344 221.820312 29.53125 221.574219 31.390625 C 221.117188 34.792969 219.433594 47.371094 217.699219 59.640625 C 216.835938 65.773438 215.957031 71.835938 215.210938 76.625 C 214.84375 79.023438 214.507812 81.101562 214.222656 82.710938 C 214.078125 83.515625 213.953125 84.199219 213.839844 84.746094 C 213.730469 85.28125 213.636719 85.691406 213.578125 85.878906 L 213.574219 85.890625 C 212.910156 88.226562 212.550781 90.6875 212.042969 92.414062 C 211.800781 93.269531 211.503906 93.925781 211.265625 94.230469 C 211.148438 94.382812 211.0625 94.445312 211.011719 94.472656 C 210.960938 94.5 210.9375 94.507812 210.832031 94.511719 L 210.789062 94.511719 L 210.769531 95.035156 L 211.054688 94.585938 C 211.023438 94.566406 210.910156 94.511719 210.785156 94.511719 L 210.769531 95.035156 L 211.054688 94.585938 L 211.050781 94.59375 L 211.058594 94.585938 L 211.054688 94.585938 L 211.050781 94.59375 L 211.058594 94.585938 C 211.003906 94.550781 210.8125 94.292969 210.625 93.867188 C 210.292969 93.128906 209.960938 91.929688 209.6875 90.546875 C 209.269531 88.46875 208.96875 85.957031 208.722656 83.671875 C 208.472656 81.378906 208.289062 79.324219 208.085938 78.007812 C 207.773438 76 206.375 65.984375 204.902344 55.621094 C 204.167969 50.4375 203.40625 45.160156 202.753906 40.734375 C 202.101562 36.304688 201.554688 32.742188 201.226562 30.933594 C 200.601562 27.480469 200.101562 23.503906 199.757812 20.398438 C 199.585938 18.84375 199.453125 17.511719 199.363281 16.570312 C 199.320312 16.097656 199.285156 15.71875 199.265625 15.460938 C 199.238281 15.207031 199.230469 15.070312 199.230469 15.070312 L 199.21875 14.96875 C 199.203125 14.894531 198.695312 11.441406 197.175781 7.855469 C 196.40625 6.0625 195.394531 4.222656 193.960938 2.746094 C 193.242188 2.007812 192.40625 1.363281 191.445312 0.898438 C 190.488281 0.4375 189.398438 0.160156 188.230469 0.164062 C 187.898438 0.164062 187.566406 0.1875 187.226562 0.226562 L 187.230469 0.226562 C 185.300781 0.464844 183.511719 1.003906 181.910156 1.863281 C 179.507812 3.15625 177.574219 5.1875 176.300781 7.859375 C 175.023438 10.527344 174.378906 13.804688 174.375 17.695312 C 174.378906 19.207031 174.472656 20.808594 174.675781 22.511719 C 175.425781 28.902344 176.175781 39.953125 176.738281 49.367188 C 177.019531 54.074219 177.253906 58.378906 177.417969 61.507812 C 177.5 63.070312 177.566406 64.34375 177.605469 65.222656 C 177.652344 66.097656 177.675781 66.582031 177.675781 66.585938 L 177.699219 66.792969 C 177.699219 66.792969 177.730469 66.945312 177.777344 67.25 C 178.144531 69.347656 179.609375 78.363281 179.605469 85.714844 C 179.609375 88.484375 179.386719 91.019531 178.894531 92.734375 C 178.652344 93.585938 178.339844 94.222656 178.058594 94.574219 C 177.914062 94.75 177.785156 94.855469 177.675781 94.921875 C 177.566406 94.992188 177.46875 95.023438 177.335938 95.042969 L 177.128906 95.058594 C 176.699219 95.058594 176.152344 94.882812 175.472656 94.394531 C 174.289062 93.550781 172.886719 91.78125 171.570312 89.539062 C 169.574219 86.175781 167.691406 81.777344 166.125 77.777344 C 165.34375 75.777344 164.640625 73.875 164.027344 72.234375 C 163.417969 70.59375 162.910156 69.230469 162.492188 68.253906 C 161.257812 65.378906 156.734375 55.25 152.496094 45.808594 C 148.269531 36.371094 144.339844 27.644531 144.339844 27.644531 L 142.902344 28.289062 L 144.355469 27.683594 C 144.296875 27.546875 143.710938 26.171875 142.183594 24.773438 C 141.417969 24.078125 140.417969 23.375 139.148438 22.859375 C 137.878906 22.339844 136.347656 22.007812 134.5625 22.007812 C 133.179688 22.007812 131.640625 22.203125 129.941406 22.660156 C 127.394531 23.328125 125.46875 24.675781 124.296875 26.488281 C 123.128906 28.296875 122.707031 30.433594 122.707031 32.652344 C 122.707031 35.222656 123.261719 37.960938 124.035156 40.714844 C 124.8125 43.46875 125.820312 46.238281 126.777344 48.804688 C 128.558594 53.5625 133.597656 67.339844 138.359375 81.519531 C 140.742188 88.613281 143.050781 95.804688 144.847656 102.011719 C 146.644531 108.210938 147.929688 113.472656 148.25 116.496094 C 148.359375 117.515625 148.410156 118.539062 148.410156 119.570312 C 148.414062 125.234375 146.847656 130.980469 145.085938 135.542969 C 144.207031 137.820312 143.285156 139.804688 142.5 141.339844 C 141.714844 142.867188 141.054688 143.964844 140.761719 144.394531 C 140.664062 144.539062 140.589844 144.699219 140.542969 144.867188 L 141.996094 145.261719 L 141.011719 144.121094 C 140.726562 144.371094 140.597656 144.664062 140.542969 144.867188 L 141.996094 145.261719 L 141.011719 144.121094 L 141.921875 145.179688 L 141.921875 143.777344 C 141.699219 143.765625 141.296875 143.867188 141.011719 144.121094 L 141.921875 145.179688 L 141.921875 143.777344 L 141.921875 144.796875 L 142.210938 143.8125 C 142.167969 143.800781 142.070312 143.777344 141.921875 143.777344 L 141.921875 144.796875 L 142.210938 143.8125 L 142.089844 144.238281 L 142.25 143.824219 L 142.210938 143.8125 L 142.089844 144.238281 L 142.25 143.824219 L 142.242188 143.855469 L 142.253906 143.824219 L 142.25 143.824219 L 142.242188 143.855469 L 142.253906 143.824219 C 142.222656 143.820312 141.871094 143.628906 141.257812 143.105469 C 140.640625 142.585938 139.734375 141.742188 138.480469 140.4375 C 136.183594 138.042969 131.503906 133.597656 126.421875 129.222656 C 123.882812 127.039062 121.246094 124.875 118.761719 123.003906 C 116.273438 121.132812 113.949219 119.550781 111.957031 118.515625 L 111.964844 118.515625 C 109.511719 117.234375 106.285156 115.851562 102.777344 114.777344 C 99.269531 113.703125 95.488281 112.9375 91.898438 112.933594 C 89.835938 112.933594 87.832031 113.1875 85.984375 113.820312 C 84.136719 114.449219 82.4375 115.480469 81.09375 116.984375 L 82.273438 118.035156 L 81.238281 116.839844 C 81.175781 116.898438 80.558594 117.433594 79.914062 118.355469 C 79.285156 119.277344 78.585938 120.621094 78.578125 122.316406 C 78.574219 123.382812 78.886719 124.558594 79.609375 125.664062 C 80.320312 126.773438 81.414062 127.816406 82.953125 128.792969 C 90.003906 133.269531 102.789062 142.746094 111.925781 155.996094 C 116.585938 162.753906 118.421875 165.621094 119.417969 167.332031 C 119.921875 168.1875 120.214844 168.761719 120.585938 169.457031 C 120.953125 170.152344 121.386719 170.949219 122.105469 172.144531 L 122.136719 172.195312 C 122.144531 172.207031 125.890625 177.910156 130.335938 184.148438 C 132.5625 187.265625 134.960938 190.515625 137.164062 193.265625 C 138.265625 194.640625 139.320312 195.886719 140.289062 196.941406 C 141.265625 198 142.140625 198.851562 142.96875 199.472656 C 144.214844 200.394531 146.085938 202.128906 148.121094 204.222656 C 151.175781 207.371094 154.640625 211.375 157.304688 214.933594 C 158.636719 216.710938 159.769531 218.386719 160.546875 219.75 C 160.929688 220.433594 161.226562 221.039062 161.410156 221.519531 C 161.601562 221.996094 161.65625 222.351562 161.648438 222.433594 L 163.203125 222.433594 L 161.648438 222.375 L 161.648438 222.433594 L 163.203125 222.433594 L 161.648438 222.375 L 163.058594 222.425781 L 161.648438 222.371094 L 161.648438 222.375 L 163.058594 222.425781 L 161.648438 222.371094 C 161.652344 222.382812 161.640625 222.480469 161.667969 222.644531 C 161.6875 222.808594 161.753906 223.046875 161.875 223.25 L 163.226562 222.4375 L 161.648438 222.4375 C 161.648438 226.652344 161.859375 246.878906 161.867188 250.148438 L 161.867188 250.140625 C 161.867188 250.191406 161.863281 250.382812 161.851562 250.65625 C 161.757812 252.796875 161.300781 260.152344 160.671875 269.9375 C 159.726562 284.625 158.398438 304.820312 157.304688 321.347656 C 156.753906 329.613281 156.265625 336.957031 155.917969 342.234375 C 155.742188 344.875 155.601562 346.996094 155.503906 348.457031 C 155.453125 349.1875 155.417969 349.757812 155.386719 350.140625 C 155.363281 350.527344 155.351562 350.726562 155.351562 350.726562 L 156.921875 350.828125 L 155.355469 350.667969 L 153.039062 372.996094 C 152.949219 373.859375 153.578125 374.632812 154.445312 374.722656 C 155.308594 374.816406 156.085938 374.1875 156.175781 373.320312 L 158.492188 350.992188 L 158.496094 350.9375 C 158.496094 350.9375 160.125 326.585938 161.753906 301.824219 C 162.570312 289.445312 163.382812 276.960938 163.996094 267.367188 C 164.300781 262.566406 164.558594 258.496094 164.738281 255.515625 C 164.828125 254.023438 164.898438 252.804688 164.945312 251.90625 C 164.972656 251.453125 164.988281 251.085938 165 250.792969 C 165.011719 250.503906 165.019531 250.308594 165.019531 250.148438 L 165.019531 250.140625 C 165.011719 246.839844 164.804688 226.613281 164.804688 222.4375 C 164.804688 222.152344 164.726562 221.871094 164.582031 221.628906 L 163.234375 222.433594 L 164.804688 222.355469 C 164.800781 222.199219 164.742188 221.886719 164.582031 221.628906 L 163.234375 222.433594 L 164.804688 222.355469 L 163.246094 222.433594 L 164.804688 222.496094 L 164.804688 222.355469 L 163.246094 222.433594 L 164.804688 222.496094 L 163.4375 222.441406 L 164.804688 222.496094 L 163.4375 222.441406 L 164.804688 222.496094 L 164.804688 222.433594 C 164.804688 221.953125 164.710938 221.515625 164.585938 221.0625 C 164.335938 220.230469 163.929688 219.359375 163.398438 218.394531 C 162.464844 216.71875 161.148438 214.792969 159.613281 212.757812 C 157.308594 209.707031 154.515625 206.433594 151.855469 203.585938 C 150.53125 202.160156 149.234375 200.84375 148.046875 199.710938 C 146.855469 198.578125 145.78125 197.640625 144.851562 196.945312 C 144.300781 196.539062 143.507812 195.785156 142.613281 194.808594 C 141.039062 193.101562 139.113281 190.707031 137.136719 188.097656 C 134.171875 184.175781 131.078125 179.765625 128.726562 176.335938 C 127.554688 174.621094 126.5625 173.152344 125.871094 172.113281 C 125.519531 171.59375 125.25 171.179688 125.0625 170.902344 C 124.871094 170.621094 124.777344 170.46875 124.773438 170.46875 L 123.457031 171.332031 L 124.8125 170.519531 C 124.117188 169.371094 123.730469 168.65625 123.375 167.984375 C 122.839844 166.972656 122.355469 166.027344 121.15625 164.117188 C 119.957031 162.199219 118.027344 159.296875 114.519531 154.207031 C 104.996094 140.421875 91.921875 130.769531 84.644531 126.132812 L 84.644531 126.128906 C 83.390625 125.339844 82.664062 124.589844 82.257812 123.957031 C 81.847656 123.320312 81.734375 122.808594 81.730469 122.316406 C 81.726562 121.550781 82.082031 120.753906 82.511719 120.148438 C 82.714844 119.847656 82.929688 119.601562 83.085938 119.4375 L 83.261719 119.261719 L 83.304688 119.222656 L 83.308594 119.21875 L 82.753906 118.59375 L 83.300781 119.222656 L 83.308594 119.21875 L 82.753906 118.59375 L 83.300781 119.222656 L 83.445312 119.082031 C 84.390625 118.027344 85.578125 117.292969 87.007812 116.800781 C 88.429688 116.3125 90.097656 116.082031 91.898438 116.082031 C 95.035156 116.078125 98.558594 116.777344 101.855469 117.789062 C 105.152344 118.796875 108.230469 120.117188 110.5 121.304688 L 110.5 121.308594 C 112.226562 122.203125 114.460938 123.707031 116.867188 125.519531 C 124.09375 130.957031 132.929688 139.199219 136.203125 142.613281 L 136.203125 142.621094 C 137.855469 144.328125 138.960938 145.328125 139.765625 145.945312 C 140.167969 146.257812 140.496094 146.46875 140.816406 146.628906 C 141.140625 146.785156 141.457031 146.917969 141.921875 146.925781 C 142.269531 146.933594 142.742188 146.796875 143.070312 146.511719 C 143.398438 146.222656 143.535156 145.894531 143.585938 145.691406 L 142.066406 145.28125 L 143.371094 146.164062 C 143.785156 145.550781 144.46875 144.402344 145.308594 142.773438 C 147.792969 137.898438 151.550781 128.925781 151.566406 119.570312 C 151.566406 118.4375 151.507812 117.296875 151.382812 116.160156 C 151.011719 112.714844 149.695312 107.425781 147.878906 101.140625 C 142.429688 82.320312 132.421875 54.894531 129.734375 47.703125 C 128.78125 45.15625 127.800781 42.460938 127.070312 39.867188 C 126.339844 37.269531 125.859375 34.765625 125.863281 32.652344 C 125.863281 30.820312 126.214844 29.324219 126.941406 28.207031 C 127.675781 27.09375 128.785156 26.238281 130.757812 25.703125 C 132.21875 25.3125 133.476562 25.15625 134.5625 25.15625 C 135.957031 25.15625 137.0625 25.410156 137.953125 25.773438 C 139.289062 26.320312 140.167969 27.128906 140.726562 27.800781 C 141 28.136719 141.195312 28.4375 141.308594 28.636719 C 141.371094 28.738281 141.40625 28.816406 141.433594 28.863281 L 141.453125 28.90625 L 141.453125 28.914062 L 142.328125 28.53125 L 141.449219 28.894531 L 141.453125 28.914062 L 142.328125 28.53125 L 141.449219 28.894531 L 141.464844 28.9375 C 141.464844 28.9375 141.710938 29.480469 142.140625 30.445312 C 143.660156 33.824219 147.496094 42.351562 151.214844 50.652344 C 154.933594 58.945312 158.542969 67.039062 159.59375 69.492188 C 160.152344 70.796875 161.03125 73.242188 162.113281 76.113281 C 163.738281 80.429688 165.84375 85.75 168.246094 90.078125 C 169.457031 92.246094 170.730469 94.171875 172.144531 95.640625 C 172.851562 96.371094 173.597656 96.992188 174.417969 97.453125 C 175.242188 97.914062 176.15625 98.207031 177.128906 98.207031 C 177.328125 98.207031 177.53125 98.191406 177.734375 98.167969 C 178.300781 98.097656 178.84375 97.902344 179.3125 97.613281 C 180.148438 97.105469 180.734375 96.359375 181.167969 95.535156 C 181.828125 94.28125 182.191406 92.800781 182.433594 91.140625 C 182.667969 89.476562 182.757812 87.636719 182.757812 85.714844 C 182.757812 81.292969 182.269531 76.445312 181.78125 72.679688 C 181.292969 68.914062 180.804688 66.246094 180.800781 66.226562 L 179.253906 66.507812 L 180.824219 66.433594 C 180.824219 66.429688 180.449219 58.613281 179.886719 49.179688 C 179.320312 39.734375 178.570312 28.691406 177.808594 22.144531 C 177.617188 20.550781 177.527344 19.070312 177.53125 17.695312 C 177.53125 12.964844 178.585938 9.570312 180.304688 7.304688 C 181.164062 6.164062 182.191406 5.292969 183.40625 4.636719 C 184.617188 3.984375 186.023438 3.554688 187.621094 3.351562 L 187.625 3.351562 C 187.832031 3.328125 188.035156 3.316406 188.230469 3.316406 C 188.917969 3.316406 189.507812 3.460938 190.074219 3.738281 C 191.070312 4.210938 191.992188 5.117188 192.789062 6.300781 C 193.988281 8.0625 194.847656 10.378906 195.371094 12.234375 C 195.636719 13.164062 195.820312 13.972656 195.933594 14.546875 C 195.996094 14.835938 196.039062 15.0625 196.0625 15.214844 L 196.097656 15.4375 L 197.660156 15.203125 L 196.085938 15.335938 C 196.089844 15.359375 196.832031 24.351562 198.128906 31.496094 C 198.433594 33.210938 198.984375 36.78125 199.632812 41.195312 C 200.617188 47.820312 201.828125 56.371094 202.859375 63.648438 C 203.882812 70.933594 204.726562 76.925781 204.96875 78.492188 C 205.117188 79.425781 205.277344 81.054688 205.46875 82.90625 C 205.761719 85.707031 206.128906 89.054688 206.730469 91.808594 C 207.035156 93.191406 207.382812 94.421875 207.886719 95.449219 C 208.140625 95.960938 208.433594 96.433594 208.863281 96.855469 C 209.285156 97.265625 209.925781 97.636719 210.675781 97.65625 L 210.832031 97.664062 C 211.433594 97.667969 212.039062 97.511719 212.546875 97.222656 C 212.992188 96.976562 213.359375 96.644531 213.65625 96.289062 C 214.171875 95.65625 214.507812 94.941406 214.78125 94.191406 C 215.1875 93.0625 215.457031 91.804688 215.734375 90.523438 C 216.003906 89.238281 216.269531 87.933594 216.609375 86.757812 L 216.605469 86.769531 C 216.710938 86.40625 216.8125 85.957031 216.933594 85.371094 C 217.375 83.191406 218.019531 79.195312 218.761719 74.273438 C 220.984375 59.523438 224.058594 36.601562 224.699219 31.804688 C 224.929688 30.046875 225.109375 28.023438 225.414062 25.964844 C 225.871094 22.871094 226.640625 19.730469 228.136719 17.453125 C 228.890625 16.316406 229.796875 15.378906 230.964844 14.6875 C 232.128906 13.996094 233.566406 13.535156 235.445312 13.417969 C 235.734375 13.398438 236.007812 13.390625 236.273438 13.390625 C 237.710938 13.394531 238.742188 13.632812 239.5 13.976562 C 240.066406 14.238281 240.480469 14.558594 240.824219 14.933594 C 241.332031 15.496094 241.675781 16.210938 241.894531 17.066406 C 242.109375 17.910156 242.191406 18.882812 242.191406 19.84375 C 242.191406 20.691406 242.132812 21.53125 242.070312 22.292969 C 242.007812 23.066406 241.933594 23.738281 241.933594 24.355469 C 241.933594 24.527344 241.941406 24.695312 241.957031 24.867188 L 243.527344 24.703125 L 241.953125 24.84375 C 241.964844 24.910156 241.972656 25.074219 241.972656 25.289062 C 241.972656 26.214844 241.855469 28.117188 241.683594 30.417969 C 241.421875 33.878906 241.023438 38.300781 240.679688 42.132812 C 240.503906 44.046875 240.347656 45.820312 240.226562 47.257812 C 240.101562 48.699219 240.015625 49.789062 239.988281 50.410156 C 239.914062 52.003906 239.445312 62.34375 239 72.691406 C 238.777344 77.867188 238.554688 83.046875 238.390625 87.140625 C 238.308594 89.1875 238.242188 90.960938 238.195312 92.328125 C 238.148438 93.703125 238.121094 94.648438 238.121094 95.117188 L 238.121094 95.105469 C 238.121094 95.734375 238.046875 96.738281 237.96875 97.898438 C 237.890625 99.058594 237.8125 100.390625 237.8125 101.742188 C 237.816406 103.46875 237.929688 105.226562 238.402344 106.824219 C 238.640625 107.617188 238.972656 108.382812 239.476562 109.0625 C 239.972656 109.738281 240.664062 110.324219 241.515625 110.664062 C 242.1875 110.9375 242.882812 111.0625 243.542969 111.0625 C 244.730469 111.0625 245.78125 110.679688 246.667969 110.171875 C 248.003906 109.410156 249.015625 108.371094 249.734375 107.515625 C 250.453125 106.664062 250.863281 105.992188 250.898438 105.945312 L 250.910156 105.921875 C 250.910156 105.921875 256.023438 97.269531 261.386719 88.074219 C 264.074219 83.476562 266.820312 78.746094 269.03125 74.890625 C 270.132812 72.964844 271.097656 71.253906 271.863281 69.882812 C 272.621094 68.507812 273.167969 67.5 273.460938 66.886719 C 274.363281 64.980469 275.589844 62.304688 277.40625 60.175781 C 278.3125 59.113281 279.347656 58.195312 280.546875 57.550781 C 281.746094 56.90625 283.105469 56.515625 284.753906 56.511719 C 285.707031 56.511719 286.757812 56.644531 287.929688 56.957031 C 289.015625 57.261719 289.566406 57.707031 289.972656 58.320312 C 290.367188 58.929688 290.601562 59.820312 290.601562 60.996094 C 290.605469 62.566406 290.175781 64.582031 289.449219 66.734375 C 288.359375 69.964844 286.636719 73.515625 284.945312 76.648438 C 283.25 79.789062 281.597656 82.503906 280.636719 84.179688 C 280.152344 85.015625 279.59375 86.164062 278.945312 87.585938 C 276.691406 92.558594 273.421875 100.828125 270.453125 108.328125 C 268.96875 112.078125 267.5625 115.628906 266.40625 118.457031 C 265.828125 119.867188 265.308594 121.097656 264.878906 122.078125 C 264.453125 123.054688 264.097656 123.792969 263.902344 124.136719 C 263.523438 124.816406 263.226562 125.628906 262.929688 126.632812 C 262.410156 128.378906 261.921875 130.667969 261.460938 133.292969 C 260.089844 141.167969 259.019531 151.953125 259.015625 158.453125 C 259.015625 158.890625 259.023438 159.308594 259.03125 159.703125 L 259.03125 159.691406 C 259.035156 159.851562 259.035156 160.011719 259.035156 160.175781 C 259.039062 162.445312 258.640625 166.269531 257.957031 170.898438 C 255.910156 184.824219 251.375 206.292969 247.992188 219.609375 C 246.042969 227.265625 245.488281 236.132812 245.484375 243.96875 C 245.488281 255.242188 246.652344 264.363281 246.65625 264.40625 L 248.226562 264.207031 L 246.648438 264.285156 C 248.027344 291.960938 253.488281 326.453125 258.453125 373.324219 C 258.542969 374.1875 259.320312 374.820312 260.183594 374.722656 C 261.050781 374.632812 261.679688 373.859375 261.585938 372.992188 " fill-opacity="1" fill-rule="nonzero"/></svg>